<?xml version="1.0" encoding="UTF-8"?>
<svg width="75pt" height="75pt" version="1.1" viewBox="0 0 1200 1200" xmlns="http://www.w3.org/2000/svg">
 <path d="m871.5 187.87h41.203c10.922 0 20.625-10.922 21.797-23.016l0.046875-100.59c0-10.922-10.922-21.797-21.797-21.797h-41.203c-10.922 0-21.797 10.922-21.797 21.797v101.81c-0.046875 10.875 10.875 21.797 21.75 21.797z" fill="#c18d0a"/>
 <path d="m77.578 1020.6c0 69.094 56.953 126.05 126.05 126.05h791.53c69.094 0 126.05-56.953 126.05-126.05v-664.26h-1043.6zm767.26-516.37c0-3.6562 2.4375-6.0469 6.0469-6.0469h83.625c3.6562 0 6.0469 2.4375 6.0469 6.0469v83.625c0 3.6562-2.4375 6.0469-6.0469 6.0469h-83.625c-3.6562 0-6.0469-2.4375-6.0469-6.0469zm0 191.53c0-3.6562 2.4375-6.0469 6.0469-6.0469h83.625c3.6562 0 6.0469 2.4375 6.0469 6.0469v83.625c0 3.6562-2.4375 6.0469-6.0469 6.0469h-83.625c-3.6562 0-6.0469-2.4375-6.0469-6.0469zm0 191.48c0-3.6562 2.4375-6.0469 6.0469-6.0469h83.625c3.6562 0 6.0469 2.4375 6.0469 6.0469v83.625c0 3.6562-2.4375 6.0469-6.0469 6.0469h-83.625c-3.6562 0-6.0469-2.4375-6.0469-6.0469zm-201.19-383.02c0-3.6562 2.4375-6.0469 6.0469-6.0469h83.625c3.6562 0 6.0469 2.4375 6.0469 6.0469v83.625c0 3.6562-2.4375 6.0469-6.0469 6.0469h-83.625c-3.6562 0-6.0469-2.4375-6.0469-6.0469zm0 191.53c0-3.6562 2.4375-6.0469 6.0469-6.0469h83.625c3.6562 0 6.0469 2.4375 6.0469 6.0469v83.625c0 3.6562-2.4375 6.0469-6.0469 6.0469h-83.625c-3.6562 0-6.0469-2.4375-6.0469-6.0469zm0 191.48c0-3.6562 2.4375-6.0469 6.0469-6.0469h83.625c3.6562 0 6.0469 2.4375 6.0469 6.0469v83.625c0 3.6562-2.4375 6.0469-6.0469 6.0469h-83.625c-3.6562 0-6.0469-2.4375-6.0469-6.0469zm-198.79-383.02c0-3.6562 2.4375-6.0469 6.0469-6.0469h83.625c3.6562 0 6.0469 2.4375 6.0469 6.0469v83.625c0 3.6562-2.4375 6.0469-6.0469 6.0469h-83.625c-3.6562 0-6.0469-2.4375-6.0469-6.0469zm0 191.53c0-3.6562 2.4375-6.0469 6.0469-6.0469h83.625c3.6562 0 6.0469 2.4375 6.0469 6.0469v83.625c0 3.6562-2.4375 6.0469-6.0469 6.0469h-83.625c-3.6562 0-6.0469-2.4375-6.0469-6.0469zm0 191.48c0-3.6562 2.4375-6.0469 6.0469-6.0469h83.625c3.6562 0 6.0469 2.4375 6.0469 6.0469v83.625c0 3.6562-2.4375 6.0469-6.0469 6.0469h-83.625c-3.6562 0-6.0469-2.4375-6.0469-6.0469zm-198.79-383.02c0-3.6562 2.4375-6.0469 6.0469-6.0469h83.625c3.6562 0 6.0469 2.4375 6.0469 6.0469v83.625c0 3.6562-2.4375 6.0469-6.0469 6.0469h-83.625c-3.6562 0-6.0469-2.4375-6.0469-6.0469zm0 191.53c0-3.6562 2.4375-6.0469 6.0469-6.0469h83.625c3.6562 0 6.0469 2.4375 6.0469 6.0469v83.625c0 3.6562-2.4375 6.0469-6.0469 6.0469h-83.625c-3.6562 0-6.0469-2.4375-6.0469-6.0469zm0 191.48c0-3.6562 2.4375-6.0469 6.0469-6.0469h83.625c3.6562 0 6.0469 2.4375 6.0469 6.0469v83.625c0 3.6562-2.4375 6.0469-6.0469 6.0469h-83.625c-3.6562 0-6.0469-2.4375-6.0469-6.0469z" fill="#c18d0a"/>
 <path d="m275.16 187.87h41.203c10.922 0 20.625-10.922 21.797-23.016l0.046875-100.59c0-10.922-10.922-21.797-21.797-21.797h-41.203c-10.922 0-21.797 10.922-21.797 21.797v101.81c-0.09375 10.875 10.828 21.797 21.75 21.797z" fill="#c18d0a"/>
 <path d="m995.16 128.48h-36.375v37.594c-1.2188 26.672-21.797 46.078-46.078 46.078h-41.203c-25.453 0-46.078-20.625-46.078-46.078v-37.594h-462.98v37.594c-1.2188 25.453-23.016 46.078-46.078 46.078h-41.203c-25.453 0-46.078-20.625-46.078-46.078v-36.375h-25.453c-69.094 0-126.05 56.953-126.05 126.05v76.359h1043.6v-77.578c0-69.094-56.953-126.05-126.05-126.05z" fill="#c18d0a"/>
</svg>
