<?xml version="1.0" encoding="UTF-8"?>
<svg width="40pt" height="40pt" version="1.1" viewBox="0 0 1200 1200" xmlns="http://www.w3.org/2000/svg">
 <path d="m1017.7 752.53c0-2.2188-0.94922-4.8477-1.8008-6.7422v-43.656c0-2.9766-0.79297-5.6758-1.3672-7.6445-0.19141-0.63672-0.37109-1.1992-0.43359-1.3555v-1.8008c0-7.7383 0-14.41-5.3516-22.246-0.97266-0.98438-3.9375-3.9492-13.391-6.1445-5.9258-2.0039-12.672-2.9414-21.238-2.9414-6.2383 0-12.684 0.50391-19.055 0.99609-5.8789 0.46875-11.699 0.9375-17.172 0.9375h-63c-3.2891 0-6 0.53906-8.375 1.0078-3.4453 0.70703-7.5977 0.69531-11.52 1.9922-0.73047 0.23828-1.4414 0.51562-0.85156 0.64844l-3.8047-0.57422c-4.2617-0.67187-8.6875-1.3672-13.066-1.3672-9.9375 0-17.484 3.793-23.543 12.406-3.9961 8.0039-6.0234 16.176-6.0234 24.277v8.5938c-5.5781 7.5234-5.4375 18.996-3.4336 27.047l0.45703 1.2461c1.2734 2.543 2.8789 10.117 2.9766 11.711v55.801c0 3.5273-0.70703 6.6953-1.4531 10.043-1.2969 5.8438-2.7734 12.457-0.046876 20.652 2.4102 7.2344 7.0938 13.441 12.254 16.738 2.1133 2.1133 5.9297 3.7422 8.3164 4.6211 5.5195 4.6094 15.098 6.8516 29.184 6.8516 7.668 0 13.801-0.69531 13.559-0.70703h37.789c2.0391 0 5.3867-0.91016 8.1484-1.8008 3.7578 1.0078 8.9023 0.81641 13.777 0.34766 1.7773-0.16797 3.5156-0.34766 6.0586-0.43359 4.7539-0.79297 10.895-1.9336 16.453-2.9648 6.3711-1.1875 11.953-2.2422 13.164-2.3516 6.793 0 13.105-7.2109 16.367-11.723 1.1406-0.53906 2.1836-1.2344 3.168-1.8828 0.43359-0.28906 0.86328-0.60156 1.2617-0.83984 4.5352-0.38281 11.629-3.0977 13.621-3.8984 25.43-9.0859 21.109-54.625 19.031-76.512-0.37109-3.7461-0.66016-6.6523-0.66016-8.332z" fill="#c18d0a"/>
 <path d="m1131.6 357.9c-0.81641-19.379-0.55078-38.664-2.9648-57.973-3.8984-31.391-13.801-77.93-52.355-81.938-21.07-2.1953-41.977 0.12109-62.891-2.8672-17.855-2.5547-35.832-5.0273-53.914-4.5859-19.934 0.49219-27.742 7.8945-28.199-14.438 0-0.011718-0.070313-3.707-0.070313-3.707 0-12.383-1.2852-33.469-1.6914-39.91 4.1523-7.5117 4.9922-17.676-1.0078-24.613-0.42188-0.82813-0.94922-1.6562-1.6094-2.4609l0.40625-0.57422c-0.875-0.75781-1.7539-1.332-2.6758-1.8477-4.5703-3.9727-11.195-6.2539-11.93-6.4922l-0.63672 1.4141c-5.3047-0.79297-11.426-0.046875-16.992 0.76953-7.332 1.0664-14.629 1.1523-23.34 0-4.6328-0.61328-9.4219-1.2461-14.148-1.2461-9.1094 0-16.055 2.5195-21.238 7.7031-11.258 11.258-11.016 24.203-10.812 35.617l0.046875 4.6211c0 0.68359 0.15625 1.957 0.37109 3.4219 0.097656 0.61328 0.25391 1.6094 0.33594 2.4609l-0.40625 1.2344c-2.1016 6.3008-2.2188 14.16-0.34766 22.223l-0.035156 0.60156c-0.16797 2.3047-0.49219 6.8164-0.58984 12.191-14.004-1.7656-29.27-2.7461-42.59-1.2852-8.9883 0.99609-168.42 3.0117-175.46 4.957-6.0469 1.6797-11.773 3.2539-18.66 4.1406l-64.488-3.5508c0.10938-5.0273-0.070312-10.031-0.21484-14.293-0.097656-2.6055-0.17969-4.957-0.17969-6.875l-0.30078-1.8945c-1.0781-3.2539-1.5-10.5-1.5-14.305 0-4.3438-3.6367-9.3594-7.2617-13.273-0.64844-13.934-6.8633-24.492-17.664-29.891-3.9375-1.9688-8.6758-2.3047-12.133-2.2812-17.867-2.9141-33.742-1.5977-44.27 4.4531-5.6289 3.7422-8.1133 7.5703-10.992 12.012l-2.4609 3.4453v1.8125c-0.085938 0.50391-0.66016 1.9922-1.1875 3.0469l-0.50391 1.5c-1.8828 9.4219-3.8398 19.164-1.9219 28.176 0 3.8281 0.43359 8.0898 0.86328 12.359 0.27734 2.7109 0.5625 5.4102 0.70703 7.9805-0.63672 2.2812-1.2344 4.5703-1.8125 6.8398-2.0156 7.9805-97.234 5.2695-106.87 5.6992-16.512 0.74219-45.227 1.6562-58.453 13.523-14.184 12.719-15.742 42.574-19.164 60.348-6.7578 35.102-7.1992 70.871-8.7344 106.46-1.2969 29.941 4.8008 59.902-0.83984 89.375-0.875 4.5977-1.7773 9.3359-1.7773 14.207 0 10.367-1.7539 31.453-1.7266 31.453-8.2422 51.059-1.8242 213.1 4.9805 264.27l2.2305 16.969c3.6602 21.938 7.2852 41.891 14.629 63.91 0.99609 2.9648 2.4492 5.9414 3.9375 8.9023 1.2227 2.4375 2.4609 4.8594 3.6016 8.0898 1.5469 3.1094 3.9961 6.0234 5.4258 7.5977 3.7188 11.902 10.703 21.852 20.902 29.965 3.8281 3.8164 11.219 7.1172 13.895 8.2305 7.9453 5.6172 22.715 10.633 23.652 10.883 1.8125 0.91016 3.3828 1.8125 4.8477 2.6641 4.3086 2.4844 8.3984 4.8477 14.531 5.1484 4.5 1.7539 12.191 3.1211 14.09 3.4062 21.277 5.9883 44.566 8.8906 71.219 8.8906 22.547 0 45.336-2.0273 67.379-3.9844 12.07-1.0664 24.133-2.1484 35.832-2.8906 6.1562 0 12.312 0.44531 18.48 0.88672 22.234 1.5977 44.438 0.046875 65.316-1.8711 14.555-1.3438 180.46-2.6172 193.93-2.6289 6.8047 0.49219 13.332 1.1055 19.754 1.7148 13.031 1.2344 25.344 2.3984 38.555 2.3984 4.7539 0 9.5742-0.15625 14.113-0.49219 5.9414 0 11.93 0.097656 17.941 0.20312 30.098 0.50391 61.969 1.4141 94.078-11.426 6.457-2.5781 12.84-6 18.469-9.0234 2.5312-1.3555 4.957-2.6523 7.1992-3.7695 2.4844-1.2461 4.9805-2.7461 7.7148-4.4297 0.64844 0.035157 1.2969 0.058594 1.9453 0.058594 12.742 0 25.512-7.9062 39.336-24.516 2.6758-3.7422 6.168-8.1484 9.9844-12.949 8.8906-11.207 19.957-25.152 26.676-38.629 15.863-38.074 23.195-189.9 23.746-236.96l0.12109-0.97266-0.046876-5.1133 0.60156-4.8008c1.5586-12.336 3.0352-23.988 3.0352-35.543 0-7.2227-1.0781-19.668-1.5859-25.031 3.7422-5.0039 5.0156-11.328 3.3828-17.281l-0.046875-7.1406c-0.98438-6.8164-1.5-14.363-1.9922-21.672l-0.070313-0.58984c0.99609-25.367 2.375-52.465 7.4648-80.449 3.1484-22.336-2.0391-43.805-2.9609-65.766zm-54.805 188.8c-0.52734 2.6758-1.0078 5.3398-1.0078 7.4766v43.199c0 4.1055-0.39453 8.2188-0.80469 12.504-0.49219 5.1016-0.99609 10.441-0.99609 16.285 0 1.9688-0.94922 6.6484-1.7031 9.7578-4.8945 27.684-11.676 170.76-28.262 198.46-5.6055 11.23-12.695 23.461-19.43 33.551l-0.69531 1.4297c-1.6914 5.0508-3.1445 7.6445-5.7461 10.246l-1.7656 1.7539v0.5625c-0.16797 0.097656-0.33594 0.19141-0.50391 0.28906-15.898 8.832-32.16 16.055-47.578 22.957-15.434 5.1484-34.117 5.7969-48.672 5.7969-7.2461 0-14.496-0.19141-21.539-0.35938-6.793-0.17969-13.414-0.34766-19.691-0.34766-24.238 0-49.812 1.3555-74.543 2.6758-25.262 1.332-203.53 2.7227-228.06 2.7734-10.199-1.2734-20.734-2.5938-31.297-2.5938-4.7539 0-9.1328 0.25391-12.91 0.74219-52.801 6.8867-109.89 6.9961-162.97 1.9922-4.6445-3.6836-9.7422-6.875-15.539-9.7188-11.027-10.703-20.062-26.914-24.469-44.316-3.457-8.6172-5.1484-15.422-6.9492-22.621l-0.45703-1.2344c-0.51562-1.0312-1.0195-2.4375-1.5469-3.8164-0.9375-2.4727-1.8711-4.9922-3.2266-6.9258-0.011719-6.3945-0.21484-12.984-1.8008-19.727-0.10938-4.7656-1.3086-9.2891-2.6758-14.484l-0.91016-3.5273v-2.8438c0-14.039-1.0078-142.27-1.9922-156.34-1.2852-18.602-2.6289-37.836-1.6328-55.906 1.5586-20.352 4.5234-39.406 7.6562-59.578l1.3203-8.5312c0.81641-6.4805 1.957-13.344 3.1328-20.41 0.83984-5.0156 1.6914-10.141 2.4609-15.289 15.926 1.2852 30.898 2.8203 51.457 4.957h23.398c4.8008 0 10.609-1.1875 12.973-1.7266 16.066 1.668 34.199 0.097656 50.578-1.6328 11.113-1.1758 21.613-2.2812 32.387-2.2812 2.6875 0 5.3867 0.070313 8.4609 0.23828 14.965 0 26.496-0.43359 38.363-0.86328 12.395-0.45703 25.152-0.9375 42.805-0.9375 57.91-1.7031 268.43-0.44531 337.38 3.6016 16.68 0 27.898-1.0312 42.086-2.3516 4.3789-0.40625 9.0352-0.83984 13.715-1.2461 7.2852 0 14.16 0.42187 20.82 0.82812 14.34 0.86328 28.262 1.1641 39.324-0.875 11.484-1.4297 26.352 0.83984 39.023-2.7461 0.21484 3.8516 0.39453 7.5 0.5625 10.766-0.48047 4.1758-0.94922 8.3516-1.1641 11.578-1.9805 7.9219-1.9805 15.613-1.8945 24.035 0.79297 4.7773 1.9453 10.945 2.9766 16.512 1.1758 6.3594 2.2305 11.902 2.3398 13.105 0.007813 1.5078-0.41406 3.332-0.78516 5.1562z" fill="#c18d0a"/>
 <path d="m721.36 1023.2c-24.227 0-49.812 1.3555-74.543 2.6758-25.262 1.332-203.53 2.7227-228.06 2.7734-51.277 0.097656-101 11.281-152.91 6.6016-8.5078-0.76953-47.832-1.3672-54.324-6.5039-4.6211-3.6602-9.707-6.8281-15.469-9.6602-11.027-10.703-20.062-26.914-24.469-44.316-3.457-8.6172-5.1484-15.422-6.9492-22.621l-0.45703-1.2344c-0.51562-1.0312-1.0195-2.4375-1.5469-3.8164-0.9375-2.4727-1.8711-4.9922-3.2266-6.9258-0.011719-6.3945-0.21484-12.984-1.8008-19.727-0.10938-4.7656-1.3086-9.2891-2.6758-14.484l-0.91016-3.5273-0.003907-2.832c0-14.039-1.0078-142.27-1.9922-156.34-2.5664-37.094 28.246-152.11-22.906-166.21-27.527-7.5859-59.09 5.2695-59.102 36.059 0 10.367-1.7539 31.453-1.7266 31.453-8.2422 51.059-1.8242 213.1 4.9805 264.27l2.2305 16.969c3.6602 21.938 7.2852 41.891 14.629 63.91 0.99609 2.9648 2.4492 5.9414 3.9375 8.9023 1.2227 2.4375 2.4609 4.8594 3.6016 8.0898 1.5469 3.1094 3.9961 6.0234 5.4258 7.5977 3.7188 11.902 10.703 21.852 20.902 29.965 3.8281 3.8164 11.219 7.1172 13.895 8.2305 7.9453 5.6172 22.715 10.633 23.652 10.883 1.8125 0.91016 3.3828 1.8125 4.8477 2.6641 4.3086 2.4844 8.3984 4.8477 14.531 5.1484 4.5 1.7539 12.191 3.1211 14.09 3.4062 21.277 5.9883 44.566 8.8906 71.219 8.8906 22.547 0 45.336-2.0273 67.379-3.9844 12.07-1.0664 24.133-2.1484 35.832-2.8906 6.1562 0 12.312 0.44531 18.48 0.88672 22.234 1.5977 44.438 0.046876 65.316-1.8711 14.555-1.3438 180.46-2.6172 193.93-2.6289 6.8047 0.49219 13.332 1.1055 19.754 1.7148 13.031 1.2344 25.344 2.3984 38.555 2.3984 23.676 0 93.168 1.8008 75.77-38.051-8.7188-19.941-42.188-15.863-59.887-15.863z" fill="#c18d0a"/>
</svg>
