<?xml version="1.0" encoding="UTF-8"?>
<svg width="75pt" height="75pt" version="1.1" viewBox="0 0 1200 1200" xmlns="http://www.w3.org/2000/svg">
 <path d="m461.76 205.2 73.441 124.8h-154.56c-23.836 2.5508-47.633-5.1406-65.461-21.164-17.828-16.023-28.012-38.863-28.012-62.836s10.184-46.812 28.012-62.836c17.828-16.023 41.625-23.715 65.461-21.164h4.5586c31.383-0.22656 60.527 16.219 76.562 43.199zm-266.64 40.32c0.11719 29.422 7.2773 58.391 20.879 84.48h-88.559c-17.887 0-35.043 7.1055-47.688 19.754-12.648 12.645-19.754 29.801-19.754 47.688v135.12-0.003906c0 17.887 7.1055 35.043 19.754 47.688 12.645 12.648 29.801 19.754 47.688 19.754h945.12c17.887 0 35.043-7.1055 47.688-19.754 12.648-12.645 19.754-29.801 19.754-47.688v-135.12c0-17.887-7.1055-35.043-19.754-47.688-12.645-12.648-29.801-19.754-47.688-19.754h-88.559c19.344-37.816 25.121-81.125 16.375-122.69-8.75-41.566-31.5-78.871-64.445-105.68-32.945-26.809-74.094-41.504-116.57-41.625h-3.3594c-33.102 0-65.633 8.6328-94.383 25.047-28.746 16.414-52.715 40.043-69.539 68.555l-52.078 86.398-50.879-86.398c-16.805-28.527-40.77-52.168-69.52-68.586-28.754-16.418-61.293-25.039-94.402-25.016h-4.5586c-49.203 0-96.391 19.547-131.18 54.336-34.793 34.793-54.336 81.98-54.336 131.18zm708.72 0c0 22.406-8.8984 43.895-24.742 59.738-15.844 15.84-37.332 24.742-59.738 24.742h-154.56l73.441-124.8h-0.003907c7.8906-13.57 19.254-24.793 32.922-32.512 13.668-7.7188 29.145-11.656 44.84-11.406h4.5586c22.156 0.3125 43.301 9.3203 58.879 25.078s24.34 37.004 24.402 59.16zm-776.4 421.92v371.28c0 26.863 10.668 52.625 29.664 71.617 18.992 18.992 44.754 29.664 71.613 29.664h303.84v-472.56zm540 472.56h303.84c26.859 0 52.621-10.672 71.613-29.664 18.996-18.992 29.664-44.754 29.664-71.617v-371.28h-405.12z" fill="#c18d0a"/>
</svg>
