<?xml version="1.0" encoding="UTF-8"?>
<svg width="40pt" height="40pt" version="1.1" viewBox="0 0 1200 1200" xmlns="http://www.w3.org/2000/svg">
 <path d="m571.93 897.45c-9.8164 0-14.746-5.3164-14.746-15.926 0-5.9023 1.9688-10.223 5.8906-12.984 2.7461-1.9688 5.7109-2.9531 8.8438-2.9531 86.113 0 147.64 2.7461 184.59 8.2578 18.07 2.3516 27.707 4.9219 28.883 7.668-1.1875 2.7461-11.004 5.4961-29.484 8.2578-36.555 5.1094-97.863 7.6797-183.97 7.6797zm-47.172-225.91c-5.5078 0-10.414-0.79297-14.746-2.3633-6.6836-2.7461-10.02-7.2734-10.02-13.559 0-10.621 8.2578-15.926 24.758-15.926 144.68 0 247.67 2.7461 308.99 8.2578 30.672 2.3516 46.98 4.9219 48.949 7.668-1.9688 2.7461-18.492 5.4961-49.535 8.2578-61.711 5.1094-164.5 7.6641-308.39 7.6641zm-164.51 204.67c0.76953-9.0352 3.9258-17.699 9.4336-25.957 5.4961-9.0352 12.758-15.926 21.805-20.641 7.4766-1.9688 11.988-2.7461 13.57-2.3633 6.2773 1.1875 9.625 4.9219 10.02 11.207 0.38281 6.2891-0.78125 11.207-3.5391 14.746-3.1445 3.1445-4.9219 4.7148-5.3047 4.7148-8.6523 4.7148-13.559 12-14.746 21.828-0.78125 9.8281 1.5859 17.699 7.0781 23.594 4.7148 5.9023 11.004 9.4453 18.863 10.621 7.0781 1.5703 14.16 1.5703 21.238 0 5.8906-1.5703 10.414-4.3203 13.559-8.2578 1.1758-1.1758 2.3633-3.1445 3.5391-5.8906l1.7656-6.4922c1.1758-8.2578-0.38281-15.926-4.7266-23.004l-2.3516-4.7148-2.9531-3.5391c-0.38281-0.79297-1.9688-2.5547-4.7148-5.3047l-10.621-11.207h5.3047c3.5391 0 7.2617 0.98438 11.219 2.9531 0.76953 0.39453 3.3242 1.7656 7.6562 4.1289l4.7266 3.5391 4.7148 4.7148c8.6523 8.6523 13.176 19.859 13.57 33.625 0 9.4453-2.3633 17.891-7.0781 25.367-6.2773 9.4336-14.746 15.926-25.355 19.465-12.191 3.9375-23.594 4.9062-34.211 2.9531-14.93-1.5703-27.516-7.8594-37.727-18.875-11.004-13-15.926-28.73-14.734-47.211zm-0.60156-181.68c-11.785-12.973-16.691-28.5-14.734-46.598 2.3516-21.238 12.59-36.758 30.672-46.598 7.4648-1.9688 11.988-2.7461 13.547-2.3633 5.9023 1.1875 9.4453 4.9219 10.633 11.219 0.38281 5.4961-0.78125 10.223-3.5391 14.16-2.3516 3.1445-4.332 4.9062-5.8906 5.3047-7.8711 3.9375-12.59 11.207-14.16 21.828-1.1758 9.0469 0.97266 16.906 6.4805 23.594 3.9258 5.1133 10.43 8.6523 19.465 10.609 6.6836 1.5703 13.754 1.5703 21.227 0 5.5078-1.5703 9.8281-4.3203 12.973-8.2578l4.1406-5.9023 1.7539-7.0781c0.79297-7.0781-0.78125-14.746-4.7148-23.004l-2.3516-4.1289-18.863-20.051 5.8906-0.60156c4.7148 1.1875 8.2578 2.3633 10.609 3.5391 3.1562 0.78125 5.9023 2.1602 8.2578 4.1289l4.7266 3.5273 4.7148 4.7148c8.6523 9.4453 13.176 20.652 13.57 33.625 0 9.4336-2.5664 17.891-7.6797 25.355-6.2891 9.4453-14.543 15.926-24.758 19.465-12.191 3.9375-23.773 4.9219-34.789 2.9531-15.734-2.3281-28.121-8.8203-37.18-19.441zm153.91-283.7c0-10.621 3.7422-15.938 11.207-15.938 66.047 0 113.03 2.7461 140.93 8.2578 14.16 2.3516 21.625 4.9219 22.414 7.668-0.79297 2.7461-8.2578 5.4961-22.414 8.2578-27.898 5.1133-74.879 7.6797-140.93 7.6797-7.4727 0.011718-11.207-5.3047-11.207-15.926zm-67.809-23.004 4.7148 4.7148c8.6523 10.223 13.176 21.434 13.57 33.625 0 9.8281-2.5664 18.289-7.6797 25.355-6.2891 9.4453-14.543 15.926-24.758 19.477-10.621 4.3203-22.223 5.4961-34.789 3.5273-14.941-1.9688-27.312-8.4609-37.164-19.465-11.785-12.984-16.691-28.512-14.734-46.598 0.78125-9.4453 3.7422-18.289 8.832-26.543 5.5078-9.0469 12.781-15.73 21.828-20.051 5.5078-2.7461 10.02-3.5391 13.547-2.3633 5.9023 0.78125 9.4453 4.5234 10.633 11.219 0.38281 4.7148-0.78125 9.4336-3.5391 14.148-3.1445 3.1445-5.125 4.7148-5.8906 4.7148-8.2578 4.7266-12.984 12.191-14.16 22.414-1.1758 8.6523 0.97266 16.32 6.4805 23.004 4.7266 5.8906 11.219 9.4453 19.465 10.609 5.5078 1.5859 12.574 1.5859 21.227 0 4.7266-0.78125 9.0469-3.5273 12.973-8.2578l4.1406-5.9023c1.1758-2.7461 1.7539-4.9219 1.7539-6.4922 0.79297-7.0664-0.78125-14.746-4.7148-23.004l-2.3516-4.1289-18.863-20.652h5.8906c3.1445 0 6.6836 0.99609 10.609 2.9531l8.2578 4.1289zm310.16-282.53c0.78125 3.9258 0.78125 8.0508 0 12.383-3.1445 22.801-5.1133 47.184-5.8906 73.141-0.38281 23.594 0.20312 45.422 1.7539 65.473 0.79297 10.223 1.9805 19.465 3.5508 27.73l2.3516 11.207c0.38281 2.7461 1.1875 5.1133 2.3516 7.0781 0 1.9688 2.1719 3.5391 6.4805 4.7148 4.332 1.5703 9.8398 2.3633 16.523 2.3633 10.621 0 23.387-1.7656 38.316-5.3047 6.6836-1.1758 17.891-4.1289 33.613-8.8438l51.312-17.699c12.961-4.7266 23.773-8.4492 32.426-11.207-1.9688-8.2578-4.3203-15.539-7.0781-21.828-5.1133-11.016-14.531-24.973-28.297-41.879-11.785-13.379-23.977-24.77-36.562-34.223-25.547-20.832-52.094-37.547-79.609-50.137-10.984-5.1094-21.398-9.4297-31.242-12.969zm-123.82-44.832c24.371-1.1875 51.695-0.20312 81.973 2.9531 27.121 2.7461 57.203 11.207 90.215 25.367 31.836 14.543 61.32 32.242 88.453 53.074 34.992 28.715 60.348 58.598 76.066 89.664 5.5078 12.984 8.8438 23.785 10.02 32.438l2.3633 15.938 2.9414 79.031c0 7.8594-0.38281 29.496-1.1758 64.883-0.79297 26.734-0.79297 48.758 0 66.047v16.523l27.121 280.18c1.5703 16.906 5.5078 43.836 11.797 80.797 4.7266 38.531 6.875 68.426 6.4805 89.664 0 17.699-1.5703 34.211-4.7148 49.547-1.5703 7.4766-4.3203 16.117-8.2578 25.957l-7.0938 12.973-10.609 13.57c-14.16 12.973-31.453 22.02-51.887 27.133-13.355 3.5273-30.266 6.4922-50.723 8.8438-6.2773 0.39453-38.902 1.1758-97.871 2.3516-4.7266 0-20.832 0.98438-48.359 2.9531l-152.72 13.57c-46.777 5.1133-81.961 9.2383-105.55 12.383-52.68 7.0781-90.023 11.207-112.04 12.383-24.77 1.5703-45.012 1.7656-60.742 0.58984-22.789-1.1875-44.23-5.3164-64.273-12.395l-17.688-7.668c-3.1562-1.5703-6.0977-3.7305-8.8438-6.4922l-8.2578-7.0781c-7.8594-7.8594-15.133-18.48-21.816-31.848-8.2578-16.906-14.543-38.531-18.863-64.883-5.5078-35.387-7.4766-78.047-5.8906-127.99 0.78125-33.422 3.7305-76.094 8.8438-127.99l8.832-96.742c0.78125-7.0781 1.1875-17.699 1.1875-31.848l0.58984-66.059c0-36.961-0.20312-59.375-0.58984-67.246l-5.9023-138.01c-1.1758-25.957-1.7539-44.641-1.7539-56.039l1.1758-71.965c3.5391-59.387 10.621-89.062 21.238-89.062 10.621 0 19.262 29.102 25.945 87.301l15.91 266.61c0.38281 7.8711 0.60156 30.875 0.60156 69.012l-0.60156 67.836c0.38281 4.3203 0 15.926-1.1758 34.801l-9.4336 97.906c-5.125 51.121-8.0625 92.605-8.8438 124.46-1.1875 47.578 0.58984 86.699 5.3047 117.37 3.5391 21.637 8.2578 38.148 14.148 49.547 2.3633 5.9023 6.1094 11.398 11.207 16.512 3.9258 3.5391 9.0469 6.2891 15.324 8.2578 25.176 8.2578 59.566 11.004 103.2 8.2578 16.906-1.1875 53.074-5.3047 108.5-12.383l262.4-24.191c22.801-1.5703 39.898-2.3516 51.301-2.3516 48.348 0 79.801-0.58984 94.344-1.7656 15.324-1.1758 29.102-3.5391 41.27-7.0781 12.973-3.5391 22.211-8.4609 27.719-14.746l3.5391-4.7266 3.5273-7.0781 5.3164-17.102c2.3516-12.191 3.5273-25.367 3.5273-39.516 0-18.48-1.957-45.805-5.8906-81.984l-5.8906-41.293c-2.3516-14.543-3.9258-28.5-4.7148-41.879l-23.594-300.82c0-17.699 0.58984-40.691 1.7539-69 1.5859-31.066 2.3633-52.297 2.3633-63.707 0.79297-10.223 0.79297-20.242 0-30.07l-0.58984-29.496c0-2.7461-0.20312-5.4961-0.58984-8.2578-6.6953 5.4961-14.352 11.207-23.004 17.102-16.129 10.223-32.629 19.465-49.535 27.73-12.191 6.2891-24.18 11.398-35.965 15.336-16.129 5.5078-32.039 9.0352-47.762 10.621-13.754 0.78125-24.77 0-33.012-2.3633-15.348-3.9375-27.324-12.191-35.988-24.77l-8.832-18.875-4.7148-16.512c-2.3633-11.398-4.1406-22.414-5.3047-33.023-2.3633-22.801-3.5391-46.598-3.5391-71.375 0-29.496 1.9688-56.617 5.8906-81.395 0.78125-5.5078 2.7461-10.621 5.8906-15.336-23.578-3.1562-49.141-4.7266-76.656-4.7266-62.508 1.9688-106.74 3.3477-132.68 4.1289-48.758 0.38281-82.945 0.98438-102.6 1.7656-31.453 0.79297-73.523 3.3477-126.2 7.6797l-61.906 6.4922 61.906-15.926c46.777-7.8594 89.426-13.176 127.97-15.938l102-7.668c72.781-5.5312 117.6-8.4727 134.5-8.8672z" fill="#c18d0a" fill-rule="evenodd"/>
</svg>
