<?xml version="1.0" encoding="UTF-8"?>
<svg width="50pt" height="50pt" version="1.1" viewBox="0 0 1200 1200" xmlns="http://www.w3.org/2000/svg">
 <path d="m299.24 615.72c-0.71875 18.539-2.5195 37.262-1.4414 55.801 0.35938 9.5391 1.4414 28.801 1.4414 30.602v32.398c0.71875 27.539-1.2617 55.621 2.8789 82.801 1.9805 13.859 6.1211 41.398 6.1211 43.199 9.5391 55.98 43.379 73.98 91.441 87.48 17.93 5.1484 36.551 12.168 55.355 14.09l-4.5977-0.40625c1.5703 0.13281 3.1445 0.30078 4.7148 0.43359 0.22656 0.023437 0.45703 0.085937 0.68359 0.10937 3.3945 0.30078 7.8945 0.69531 12.406 1.0938 8.4609 0.75781 16.934 1.4766 25.391 2.3281 7.1992 0.71875 21.602 1.0781 23.762 1.0781 19.801 0 59.039-5.3984 60.84-5.5781 36.898-1.9805 86.219 1.9805 118.8-17.82 15.301-9.1797 28.801-45 28.801-46.801 0.35938-1.8008 1.8008-5.3984 2.3398-7.1992 0.89844-2.3398 1.2617-7.1992 1.8008-9 4.6797-13.859 8.4609-43.199 8.8203-45 1.4414-8.2812 1.4414-25.199 1.4414-27-0.35938-10.98 3.4219-52.02-14.398-57.602-4.3203-1.4414-22.5 4.8594-23.398 9-1.9805 8.8203 1.8008 27 0.89844 28.801-4.5 9-2.6992 51.84-3.6016 59.398-1.4414 10.98-6.3008 32.398-7.1992 34.199-10.801 21.602-92.52 37.621-98.281 39.238-14.578 4.5-44.82 7.5586-46.621 7.7383-10.262 0.53906-30.602 1.6211-32.398 1.4414-8.4609-0.53906-25.199-1.6211-27-1.9805-36.359-5.9414-83.699-13.859-113.4-37.441-14.398-11.52-32.398-45-32.578-46.801-2.1602-36-4.1406-72-6.3008-108-0.35938-3.6016-0.71875-10.801-0.71875-12.602v-41.398c0.53906-22.141 1.0781-44.461 1.6211-66.602 0-5.9414 0.17969-18 0.35937-19.801 4.5-68.941 3.0586-133.56 9.5391-203.4 1.9805-20.699 11.879-61.199 12.602-63 31.5-70.738 173.7-49.32 235.08-54.898 15.301-1.2617 28.078 3.2383 43.199 6.8398 6.3008 1.4414 16.199 10.262 16.738 12.059 4.8594 18.539 11.879 36.539 12.238 55.801 0.53906 23.398 1.6211 70.199 1.6211 72.359 0 12.059 14.941 23.578 27 15.84 14.941-9.5391 9-52.199 9.1797-54 1.9805-25.922 2.6992-54-3.7812-79.199-2.8789-11.16-16.199-30.602-16.738-32.398-19.98-59.762-113.4-32.398-157.86-32.398-19.078 0-57.961-2.1602-84.602 0.35937-23.039 2.1602-44.82 2.6992-66.602 9.5391-20.879 6.3008-32.039 25.199-41.762 43.379-3.6016 6.8398-6.8398 22.32-8.6406 24.121-35.82 54.539-24.301 165.78-23.578 219.6 0.36328 25.738-1.6172 77.398-1.6172 79.195z" fill="#c18d0a"/>
 <path d="m740.45 649.66c10.801 1.2617 32.398-0.53906 32.398 1.2617v25.379c0 4.1406 0 12.422-0.17969 14.219-0.53906 4.1406-1.6211 12.602-1.9805 14.398-2.6992 16.922 16.559 27.539 30.961 16.199 7.0195-5.5781 11.699-20.879 17.82-28.441 9.1797-10.801 27.18-32.762 28.441-34.02 17.281-19.621 30.422-41.762 50.039-59.219 5.5781-5.0391 4.5-22.32 4.5-24.121-0.71875-2.5195-3.6016-7.1992-4.5-9-0.35938-0.53906-0.89844-1.8008-1.4414-3.6016-9.5391-28.621-49.32-44.82-71.461-66.602-8.1016-8.1016-15.121-21.781-25.199-27-1.5977-0.83984-4.0938-1.2461-6.457-1.4531-2.5312-0.61328-5.1484-0.91016-7.9453-0.34766-10.078 1.9805-14.398 27-14.762 28.801-1.2617 6.4805 2.1602 19.801 0.35938 19.801-15.66-0.89844-31.141-1.9805-46.801-1.2617-10.262 0.35937-30.602 1.2617-32.398 1.0781-17.281-1.0781-52.199 0.17969-52.199 0.17969l-1.8008 0.89844c-1.0781 0.53906-3.6016 0.89844-5.0391 2.3398-2.5195 2.5195-5.7617 9.3594-6.6602 11.16-1.4414 3.0586-4.5 9-6.3008 10.801-4.5 9 2.5195 31.68 3.0586 39.602 0.53906 5.9414 2.3398 18 2.5195 19.801 0.53906 10.801 3.4219 32.398 3.4219 34.199 3.0586 12.422 34.199 18 36 17.82 26.465-2.5117 49.684-5.9297 75.605-2.8711z" fill="#c18d0a"/>
</svg>
