<?xml version="1.0" encoding="UTF-8"?>
<svg width="40pt" height="40pt" version="1.1" viewBox="0 0 1200 1200" xmlns="http://www.w3.org/2000/svg">
 <path d="m549.05 1198.5c-145.13-12.609-279.74-77.391-382.4-184.03-119.48-124.18-180.74-300.61-163.87-471.98 20.719-210.79 144-389.95 331.74-482.06 85.453-41.953 164.06-60.141 260.02-60.188 57.234 0 90.797 4.0312 143.86 17.344 157.97 39.703 294.24 147.14 358.74 282.84 11.719 24.609 14.953 29.438 21.891 32.344 30.141 12.609 65.109 99.562 77.859 193.45 4.2188 30.984 4.1719 113.11-0.09375 143.86-15.844 115.78-60.141 220.13-130.74 307.97-98.203 122.26-248.53 203.29-406.87 219.47-24.141 2.4844-86.484 3-110.16 0.9375zm106.03-91.781c56.109-6.4219 118.73-24.562 169.22-48.984 28.734-13.922 79.406-46.312 99.188-63.375 13.688-11.812 13.453-13.828-6.9375-55.359-52.688-107.44-150.19-183.19-268.6-208.69-21.094-4.5469-33.891-5.5312-71.156-5.5312-49.359 0-73.922 3.7969-114.14 17.578-77.344 26.531-149.95 87-194.02 161.48-11.906 20.156-26.297 50.344-26.297 55.172 0 1.5938 5.9531 8.6719 13.266 15.75 70.828 68.578 181.64 119.81 285.42 131.9 26.297 3.0469 87.703 3.1406 114.05 0.14063zm-448.03-192.89c0-7.8281 15.891-51.094 26.625-72.562 17.25-34.406 39.891-65.859 66.797-92.812 34.078-34.125 77.812-64.219 116.44-80.062 9.5156-3.8906 17.344-7.875 17.344-8.7656 0-0.9375-5.4844-5.7188-12.188-10.641-16.453-12.094-47.484-44.953-59.344-62.953-12.703-19.172-25.312-46.734-32.062-70.078-8.2031-28.172-9.5625-81.469-2.9531-113.44 18.609-90.047 88.5-163.69 180.79-190.4 88.688-25.688 184.55-3.6094 250.92 57.844 46.078 42.656 73.547 101.67 73.641 158.11 0 16.641 1.3125 24.609 5.3906 33.891 4.3594 9.8438 5.1094 15.094 3.8906 27.938-5.1562 55.031-38.391 113.67-86.25 152.11-11.109 8.9062-20.484 16.922-20.812 17.719-0.32812 0.84375 6.4688 4.2188 15.141 7.5s26.438 11.484 39.422 18.234c85.359 44.344 155.76 114.42 203.44 202.5 6.6562 12.234 12.984 21.328 14.062 20.203 8.6719-9.0469 38.672-58.594 51.703-85.406 36.469-75 51.984-141.89 52.125-224.68 0.09375-63.422-4.9688-96.141-27.562-177.47-13.406-48.281-14.062-51.938-11.203-62.625 2.9062-10.875 2.7188-11.812-4.7812-22.734-14.344-20.859-46.594-60-68.016-82.641-74.531-78.656-174.94-135.66-280.08-159-42.656-9.4688-80.156-12.656-129.84-10.969-46.641 1.5938-72.656 5.3906-117.23 17.156-197.76 52.172-349.22 222.89-377.95 425.95-5.0156 35.578-5.625 100.88-1.2188 134.21 11.625 87.891 43.125 167.11 95.531 240.37 12.891 18 18.281 21.984 18.281 13.406zm411.84-302.76c40.969-7.875 74.391-25.781 101.34-54.375 19.406-20.578 31.969-42.047 42.047-71.859 4.0312-11.953 9.8438-25.219 12.844-29.438 5.1562-7.2188 5.2969-8.7188 2.4375-23.297-10.594-54.562-46.734-101.81-96.609-126.28-32.812-16.125-50.016-20.156-86.438-20.203-36.141-0.09375-56.812 4.4062-85.828 18.516-47.906 23.297-82.359 64.875-93.703 113.06-2.8594 12.188-3.6562 24.141-2.7188 42.234 2.2031 43.266 17.203 74.812 50.625 106.36 41.438 39.094 99.938 56.109 156 45.328z" fill="#c18d0a"/>
</svg>
