<?xml version="1.0" encoding="UTF-8"?>
<svg width="38pt" height="38pt" version="1.1" viewBox="0 0 1200 1200" xmlns="http://www.w3.org/2000/svg">
 <path d="m1142.4 501.6c-1.1992-7.1992-4.8008-13.199-10.801-16.801-25.199-24-84-24-123.6-25.199-7.1992-18-15.602-36-25.199-54 21.602-24 44.398-46.801 61.199-73.199 32.398-50.398-32.398-98.398-67.199-129.6-43.199-39.602-87.602-78-144-39.602-24 15.602-46.801 34.801-68.398 54-6-2.3984-10.801-3.6016-16.801-6-3.6016-34.801-3.6016-73.199-14.398-105.6-19.199-57.598-106.8-45.598-154.8-43.199-52.801 2.3984-108 4.8008-121.2 63.602-7.1992 31.199-10.801 62.398-14.398 94.801-3.6016 1.1992-6 2.3984-9.6016 3.6016-22.801-20.398-44.398-43.199-69.602-60-50.398-33.602-96 8.3984-134.4 42-32.398 30-105.6 86.398-79.199 135.6 15.602 28.801 42 54 63.602 79.199-7.1992 13.199-13.199 26.398-19.199 40.801-25.199 2.3984-50.398 6-74.398 10.801-64.801 12-68.398 54-70.801 114-1.1992 51.602-12 136.8 50.398 151.2 27.602 6 57.602 7.1992 85.199 9.6016 4.8008 13.199 9.6016 25.199 14.398 37.199-19.199 20.398-39.602 40.801-55.199 62.398-33.602 48 24 94.801 56.398 128.4 42 42 84 86.398 145.2 52.801 19.199-10.801 37.199-25.199 55.199-38.398 14.398 7.1992 28.801 13.199 43.199 18 1.1992 28.801 0 62.398 8.3984 87.602 18 52.801 110.4 42 153.6 42 48-1.1992 124.8 1.1992 140.4-55.199 7.1992-25.199 7.1992-54 9.6016-80.398 10.801-4.8008 21.602-9.6016 32.398-14.398 18 15.602 37.199 33.602 57.602 43.199 55.199 28.801 103.2-19.199 140.4-56.398 30-30 99.602-86.398 70.801-133.2-14.398-24-40.801-44.398-62.398-64.801 4.8008-12 9.6016-24 14.398-36 30 0 61.199-1.1992 87.602-9.6016 81.602-25.207 54.004-166.81 45.602-229.21zm-82.797 32.398m-195.6-316.8c-1.1992 0-1.1992 0 0 0-1.1992-1.1992-1.1992 0 0 0zm-715.2 315.6c25.199-3.6016 50.398-7.1992 75.602-9.6016 15.602-2.3984 39.602-9.6016 45.602-27.602 9.6016-26.398 20.398-51.602 34.801-76.801 3.6016-7.1992 3.6016-18-2.3984-25.199-15.602-20.398-32.398-39.602-48-60-3.6016-3.6016-25.199-25.199-25.199-31.199 0 0 50.398-48 55.199-51.602 4.8008-4.8008 19.199-14.398 27.602-21.602 7.1992 4.8008 13.199 9.6016 14.398 10.801 19.199 16.801 39.602 33.602 58.801 50.398 13.199 12 38.398 8.3984 52.801 1.1992 18-8.3984 34.801-16.801 54-22.801 15.602-6 33.602-15.602 36-33.602 3.6016-25.199 7.1992-49.199 12-74.398 1.1992-8.3984 6-21.602 7.1992-31.199 8.3984-1.1992 16.801-1.1992 25.199-2.3984 14.398-1.1992 73.199-2.3984 73.199-1.1992 4.8008 4.8008 3.6016 28.801 4.8008 36 3.6016 28.801 7.1992 56.398 10.801 85.199 1.1992 8.3984 12 15.602 18 18 21.602 7.1992 42 14.398 62.398 22.801 16.801 7.1992 40.801 1.1992 54-9.6016 19.199-15.602 38.398-31.199 58.801-46.801 3.6016-2.3984 8.3984-6 14.398-9.6016 9.6016 8.3984 30 22.801 32.398 25.199 12 10.801 24 22.801 36 36 0 0 26.398 27.602 32.398 25.199-3.6016 7.1992-19.199 20.398-20.398 22.801-18 20.398-34.801 40.801-52.801 61.199-8.3984 9.6016-9.6016 21.602-3.6016 32.398 14.398 24 25.199 49.199 34.801 75.602 4.8008 12 15.602 19.199 28.801 20.398 19.199 2.3984 38.398 3.6016 57.602 6 12 1.1992 25.199 3.6016 37.199 3.6016h3.6016c2.3984 20.398 4.8008 40.801 4.8008 61.199 0 15.602-6 40.801-2.3984 56.398 8.3984 30-20.398 16.801 26.398 19.199-6 0-12 1.1992-18 1.1992-28.801 1.1992-57.602 3.6016-86.398 6-14.398 1.1992-40.801 10.801-45.602 27.602-8.3984 27.602-18 52.801-30 78-3.6016 7.1992-3.6016 19.199 2.3984 25.199 15.602 16.801 32.398 32.398 48 49.199 2.3984 2.3984 22.801 19.199 22.801 22.801 0 2.3984-37.199 40.801-43.199 46.801-10.801 12-22.801 24-36 34.801-2.3984 1.1992-3.6016 2.3984-6 3.6016-2.3984-2.3984-4.8008-3.6016-4.8008-3.6016-18-14.398-36-27.602-54-42-13.199-10.801-38.398-9.6016-52.801-1.1992-25.199 14.398-49.199 26.398-75.602 34.801-15.602 4.8008-33.602 15.602-36 33.602-2.3984 22.801-4.8008 45.602-7.1992 68.398 0 3.6016 0 15.602-1.1992 24-8.3984-10.801-76.801-7.1992-78-7.1992-45.602-2.3984-43.199 10.801-46.801-31.199-2.3984-22.801-3.6016-44.398-6-67.199-1.1992-8.3984-12-15.602-18-18-27.602-8.3984-52.801-19.199-78-33.602-20.398-10.801-44.398-8.3984-62.398 4.8008-19.199 13.199-37.199 27.602-56.398 40.801-3.6016-3.6016-8.3984-6-12-9.6016-7.1992-15.602-32.398-30-43.199-43.199-6-7.1992-43.199-45.602-42-40.801 0-4.8008 18-20.398 21.602-24 15.602-16.801 31.199-34.801 46.801-51.602 4.8008-4.8008 10.801-18 7.1992-25.199-10.801-22.801-19.199-44.398-26.398-68.398-3.6016-12-16.801-19.199-28.801-20.398-24-2.3984-48-4.8008-72-8.3984-4.8008 0-30 0-33.602-3.6016 2.3984 3.6016 8.3984-19.199 8.3984-22.801 3.6016-20.398-3.6016-48-3.6016-69.602 0-6 7.1992-42 3.6016-44.398z" fill="#c18d0a"/>
 <path d="m586.8 343.2c-136.8 9.6016-259.2 122.4-259.2 262.8 0 144 117.6 258 258 258h1.1992c3.6016 0 6 1.1992 10.801 0 151.2-6 288-128.4 273.6-288-13.199-142.8-144-242.4-284.4-232.8zm20.398 456c-94.801-6-171.6-70.801-188.4-166.8-16.801-96 42-201.6 141.6-220.8 96-19.199 188.4 50.398 216 140.4 34.797 118.8-46.801 240-169.2 247.2z" fill="#c18d0a"/>
</svg>
