<?xml version="1.0" encoding="UTF-8"?>
<svg width="75pt" height="75pt" version="1.1" viewBox="0 0 1200 1200" xmlns="http://www.w3.org/2000/svg">
 <path d="m956.4 366c81.602 21.602 76.801 28.801 82.801 118.8 6 99.602-18 199.2 10.801 301.2 13.199 45.602-7.1992 103.2-9.6016 156 0 15.602-8.3984 33.602-2.3984 44.398 36 66-14.398 105.6-40.801 153.6-4.8008 9.6016-14.398 15.602-24 15.602-62.398-2.3984-123.6 31.199-187.2 13.199-21.602-6-44.398-4.8008-67.199-1.1992-105.6 15.602-211.2 12-316.8 1.1992-37.199-3.6016-74.398 0-112.8 8.3984-87.602 19.199-110.4 1.1992-112.8-87.602-3.6016-103.2-7.1992-207.6-2.3984-310.8 4.8008-98.398-1.1992-196.8-6-295.2-1.1992-16.801-9.6016-38.398 15.602-43.199 22.801-4.8008 38.398 9.6016 45.602 31.199 19.199 57.602 19.199 118.8 24 180 8.3984 98.398 10.801 103.2 105.6 90 45.602-6 90-7.1992 135.6-3.6016 31.199 2.3984 50.398-13.199 48-43.199-6.0078-62.398 9.5938-121.2 9.5938-182.4 0-52.801-4.8008-58.801-54-52.801-73.199 8.4023-146.4-13.199-219.6-3.5977-12 1.1992-25.199-3.6016-36-9.6016-21.602-13.199-48-28.801-40.801-56.398 7.1992-33.602 37.199-14.398 57.602-15.602 34.801-2.3984 69.602-3.6016 103.2-6 3.6016-24-14.398-30-24-39.602-60-61.199-70.801-104.4-36-159.6 51.602-83.996 121.2-105.59 189.6-65.996 26.398 15.602 40.801 10.801 60-16.801 63.602-88.797 180-85.199 247.2 4.8008 14.398 20.398 25.199 42 55.199 45.602 128.4 14.398 184.8 104.4 102 229.2zm-1.1992 692.4c2.3984-60 4.8008-122.4 8.3984-186 1.1992-24-7.1992-37.199-31.199-43.199-85.199-20.398-170.4 6-254.4 2.3984-14.398 0-21.602 14.398-21.602 26.398-1.1992 62.398-8.3984 126 2.3984 188.4 3.6016 19.199 10.801 32.398 33.602 31.199 87.602-3.5938 176.4 21.605 262.8-19.195zm-162-607.2c-22.801 1.1992-45.602 3.6016-67.199 3.6016-34.801 0-51.602 9.6016-56.398 50.398-7.1992 57.602 0 115.2-4.8008 172.8-2.3984 27.602 10.801 43.199 40.801 38.398 72-9.6016 145.2-7.1992 218.4-4.8008 27.602 1.1992 32.398-12 36-36 8.3984-57.602 2.3984-115.2 3.6016-172.8 0-22.801-12-34.801-34.801-42-45.602-14.398-90-13.195-135.6-9.5977zm-260.4 530.4c-2.3984-49.199-4.8008-81.602-6-114-1.1992-20.398-10.801-33.602-33.602-32.398-70.801 3.6016-141.6-7.1992-211.2 2.3984-21.602 3.6016-31.199 10.801-28.801 33.602 4.8008 60 6 121.2 0 181.2-3.6016 32.398 13.199 38.398 40.801 36 43.199-2.3984 85.199-4.8008 128.4-3.6016 118.8 4.8008 118.8 4.8008 110.4-103.2zm-32.402-756c-2.3984-50.398-20.398-74.398-57.602-72-38.398 2.3984-80.398 50.398-78 88.801 3.6016 45.602 54 97.199 93.602 93.602 28.801-2.4023 44.402-44.402 42-110.4zm194.4 136.8c69.602 7.1992 132-2.3984 182.4-54 33.602-33.602 45.602-69.602 25.199-90-22.801-24-68.398-14.398-94.801 22.801-25.199 34.801-55.199 64.801-92.398 86.398-10.801 6.0039-21.598 13.203-20.398 34.801zm-94.801-81.598c45.602-33.602 86.398-64.801 128.4-96 22.801-16.801 18-39.602 9.6016-61.199-9.6016-24-27.602-33.602-54-30-39.602 4.8008-69.602 27.602-78 68.398-9.6016 36-14.398 73.199-6 118.8z" fill="#c18d0a"/>
</svg>
